# xmcd
#
# Track frame offsets: 
#        150
#        35845
#        59400
#        101168
#        149431
#        180909
#        202325
#
# Disc length: 3471 seconds
#
# Revision: 5
# Processed by: cddbd v1.5.2PL0 Copyright (c) Steve Scherf et al.
# Submitted via: ExactAudioCopy v0.99pb5
#
DISCID=6c0d8d07
DTITLE=Jan Garbarek Group - Dresden [CD1]
DYEAR=2009
DGENRE=Jazz
TTITLE0=Paper Nut
TTITLE1=The Tall Tear Trees
TTITLE2=Heitor
TTITLE3=Twelve Moons
TTITLE4=Rondo Amoroso
TTITLE5=Tao
TTITLE6=Milagre Dos Peixes
EXTD=YEAR: 2009
EXTT0=
EXTT1=
EXTT2=
EXTT3=
EXTT4=
EXTT5=
EXTT6=
PLAYORDER=
